<svg width="32" height="32" viewBox="0 0 32 32" fill="none" xmlns="http://www.w3.org/2000/svg">
<rect width="32" height="32" rx="8" fill="white"/>
<path d="M8.94166 19.041L4.34239 21.8861C4.33097 17.9797 4.31772 10.0374 4.35609 9.5199C4.39446 9.00241 4.81514 8.68494 5.02069 8.59089C8.22265 6.80167 14.7839 3.31072 15.2089 3.09249C15.574 2.90511 15.9645 3.04623 16.218 3.1334L23.5336 6.86361L20.5258 10.6898L15.7639 8.18486C15.4405 8.01419 15.2382 7.8117 14.7381 8.08696L9.50846 11.0682C9.23439 11.2169 8.94166 11.3336 8.94166 11.6708V19.041Z" fill="#0C0C0D"/>
<path d="M9.22768 25.6142L5.87729 23.9557L14.8666 17.3562L9.22768 25.6142Z" fill="black"/>
<path d="M12.9133 22.2549L10.6338 26.2592C12.2673 27.1198 15.5795 28.7453 15.5795 28.7453C15.5795 28.7453 16.6415 29.1977 17.3546 28.8949C18.0677 28.5921 26.9963 23.4354 27.2585 23.1969C27.5914 22.8941 27.5914 22.3986 27.5914 22.1784C27.5914 18.3539 27.6629 10.536 27.6629 9.88703C27.6629 9.26169 27.7421 9.069 27.3584 8.77998L24.8459 7.5L20.0551 13.8318L23.0296 12.1587C23.0068 14.8173 22.9597 20.1837 22.9543 20.3799C22.9488 20.576 22.7052 20.8991 22.5841 21.0361C21.0603 21.9544 17.881 23.8342 17.3546 24.0073C16.8283 24.1804 16.3677 24.0794 16.2032 24.0073L12.9133 22.2549Z" fill="black"/>
</svg>
