<svg width="32" height="32" viewBox="0 0 32 32" fill="none" xmlns="http://www.w3.org/2000/svg">
<rect width="32" height="32" rx="4" fill="white"/>
<path d="M9.60179 18.7455L5.45061 21.3134C5.4403 17.7876 5.42835 10.6193 5.46298 10.1522C5.49761 9.68511 5.87731 9.39858 6.06283 9.31369C8.95283 7.69882 14.8748 4.54802 15.2585 4.35106C15.5879 4.18193 15.9404 4.3093 16.1692 4.38798L22.7721 7.75471L20.0573 11.2081L15.7594 8.94722C15.4675 8.79319 15.2849 8.61042 14.8335 8.85887L10.1134 11.5497C9.866 11.6838 9.60179 11.7892 9.60179 12.0935V18.7455Z" fill="#0C0C0D"/>
<path d="M9.86006 24.6768L6.83609 23.18L14.9496 17.2235L9.86006 24.6768Z" fill="black"/>
<path d="M13.1868 21.6473L11.1294 25.2614C12.6038 26.0381 15.5932 27.5053 15.5932 27.5053C15.5932 27.5053 16.5518 27.9135 17.1954 27.6402C17.8391 27.3669 25.8978 22.7127 26.1344 22.4975C26.4349 22.2242 26.4349 21.777 26.4349 21.5782C26.4349 18.1264 26.4994 11.0703 26.4994 10.4845C26.4994 9.92011 26.5709 9.7462 26.2246 9.48533L23.9569 8.33008L19.6328 14.0449L22.3176 12.5348C22.2969 14.9344 22.2545 19.7779 22.2495 19.9549C22.2446 20.132 22.0247 20.4236 21.9155 20.5473C20.5401 21.3761 17.6705 23.0727 17.1954 23.2289C16.7204 23.3851 16.3046 23.294 16.1562 23.2289L13.1868 21.6473Z" fill="black"/>
</svg>
