<svg width="180" height="201" viewBox="0 0 180 201" fill="none" xmlns="http://www.w3.org/2000/svg">
<path d="M35.5622 123.715L0.0911543 145.658C0.00308544 115.53 -0.0990744 54.2756 0.196837 50.2844C0.492748 46.2932 3.73721 43.8448 5.32244 43.1194C30.017 29.3202 80.619 2.39643 83.8975 0.713361C86.7126 -0.731839 89.7246 0.356557 91.6797 1.02883L148.1 29.7978L124.902 59.3069L88.1776 39.9879C85.6835 38.6717 84.1234 37.1099 80.266 39.2329L39.9335 62.2259C37.8199 63.3723 35.5622 64.2725 35.5622 66.8731V123.715Z" fill="#0C0C0D"/>
<path d="M37.7685 174.402L11.9293 161.611L81.2574 110.713L37.7685 174.402Z" fill="black"/>
<path d="M66.1947 148.507L48.6143 179.39C61.2124 186.028 86.757 198.564 86.757 198.564C86.757 198.564 94.9479 202.053 100.448 199.718C105.947 197.382 174.807 157.612 176.829 155.772C179.397 153.437 179.397 149.616 179.397 147.918C179.397 118.421 179.948 58.1261 179.948 53.1208C179.948 48.2979 180.559 46.8118 177.6 44.5827L158.223 34.7109L121.274 83.5444L144.215 70.6408C144.039 91.1456 143.676 132.534 143.634 134.046C143.591 135.559 141.713 138.051 140.779 139.108C129.027 146.19 104.507 160.688 100.448 162.023C96.3879 163.358 92.8358 162.579 91.5672 162.023L66.1947 148.507Z" fill="black"/>
</svg>
