<svg width="212" height="212" viewBox="0 0 212 212" fill="none" xmlns="http://www.w3.org/2000/svg">
<g clip-path="url(#clip0_367_19322)">
<path d="M148 0H64C28.6538 0 0 28.6538 0 64V148C0 183.346 28.6538 212 64 212H148C183.346 212 212 183.346 212 148V64C212 28.6538 183.346 0 148 0Z" fill="#F56A2E"/>
<path d="M148 0H64C28.6538 0 0 28.6538 0 64V148C0 183.346 28.6538 212 64 212H148C183.346 212 212 183.346 212 148V64C212 28.6538 183.346 0 148 0Z" fill="url(#paint0_linear_367_19322)"/>
<path d="M148 5.33594H64C31.6002 5.33594 5.33496 31.6012 5.33496 64.0009V148.001C5.33496 180.401 31.6002 206.666 64 206.666H148C180.4 206.666 206.665 180.401 206.665 148.001V64.0009C206.665 31.6012 180.4 5.33594 148 5.33594Z" stroke="white" stroke-opacity="0.2" stroke-width="10.67"/>
<path d="M138.083 37.8262C138.083 37.8262 113.478 43.7178 106 67.5353C106 67.5353 92.2797 122.095 87.2222 145.375C81.768 170.5 86.2013 183.852 101.444 185.66C113.227 187.06 121.382 179.063 123.138 164.334C124.876 149.593 118.88 139.845 107.096 138.445C105.405 138.247 102.686 137.226 103.993 133.341C109.068 118.157 116.418 119.4 122.951 97.7987L138.083 37.8262ZM60.0622 94.7012C45.2163 94.7012 36.3613 101.783 36.3613 113.66C36.3613 129.001 48.8738 135.068 74.4647 132.618C77.3405 132.344 79.9188 131.912 83.5763 131.521C84.6088 127.088 85.6763 122.246 86.8605 117.3C83.4888 117.661 83.763 115.246 83.763 113.66C83.763 101.783 74.8963 94.7012 60.0622 94.7012ZM187.305 94.7012L130.056 103.084C127.753 109.83 124.5 116.213 120.396 122.042C119.09 123.944 117.9 125.729 116.75 127.875C138.176 125.291 154.119 123.133 154.119 123.133C178.66 118.519 187.305 94.7012 187.305 94.7012ZM60.0622 104.175C74.2838 104.175 74.2838 111.315 74.2838 113.66C74.2838 115.999 74.2838 123.133 60.0622 123.133C45.8405 123.133 45.8405 115.999 45.8405 113.66C45.8405 111.315 45.8405 104.175 60.0622 104.175ZM99.618 118.583C102.208 118.583 104.36 120.73 104.36 123.32C104.351 124.574 103.849 125.774 102.961 126.661C102.073 127.547 100.872 128.049 99.618 128.056C98.3651 128.046 97.1664 127.543 96.2805 126.657C95.3945 125.771 94.892 124.572 94.8813 123.32C94.892 122.066 95.3942 120.867 96.2801 119.98C97.1659 119.093 98.3645 118.595 99.618 118.583ZM103.445 147.925C104.465 147.825 105.416 147.86 106 147.925C108.327 148.193 115.333 149.115 113.659 163.237C111.979 177.354 104.862 176.45 102.535 176.187C100.207 175.913 93.2013 175.172 94.8813 161.05C96.1355 150.462 100.388 148.24 103.445 147.925Z" fill="white"/>
</g>
<defs>
<linearGradient id="paint0_linear_367_19322" x1="106" y1="0" x2="106" y2="212" gradientUnits="userSpaceOnUse">
<stop stop-color="white" stop-opacity="0"/>
<stop offset="1" stop-color="white" stop-opacity="0.15"/>
</linearGradient>
<clipPath id="clip0_367_19322">
<rect width="212" height="212" fill="white"/>
</clipPath>
</defs>
</svg>
