<svg width="28" height="40" viewBox="0 0 28 40" fill="none" xmlns="http://www.w3.org/2000/svg">
<g opacity="0.75">
<path fill-rule="evenodd" clip-rule="evenodd" d="M24.7695 30.214C27.8522 28.3875 28.9042 24.3291 27.1427 21.2016C25.3567 18.049 21.3884 16.9731 18.3302 18.7746L3.22997 27.6869C0.147293 29.5134 -0.904731 33.5717 0.856797 36.6993C2.64279 39.8518 6.61112 40.9277 9.66933 39.1263L24.7744 30.214H24.7695Z" fill="url(#paint0_linear_219_345781)"/>
<path fill-rule="evenodd" clip-rule="evenodd" d="M24.7705 18.7504L9.66543 9.83806C6.60722 8.01156 2.61442 9.11247 0.852891 12.24C-0.908637 15.3676 0.143386 19.4509 3.22606 21.2524L14.9011 28.1631C16.2712 28.9137 17.2009 30.3899 17.2009 32.0913C17.2009 33.5425 16.5158 34.8436 15.4638 35.6442L15.3659 35.7443L25.1571 29.9345C25.94 29.3841 26.625 28.6585 27.1388 27.7577C28.9003 24.6302 27.8483 20.5468 24.7656 18.7454L24.7705 18.7504ZM18.2333 0.950779L8.63787 6.61042L18.1844 12.245C19.163 12.8455 20.3129 13.1958 21.5362 13.1958C25.1082 13.1958 28 10.2434 28 6.61042C28 2.97744 25.1131 0 21.5411 0C20.3422 0 19.1924 0.350287 18.2382 0.950779H18.2333Z" fill="url(#paint1_linear_219_345781)"/>
</g>
<defs>
<linearGradient id="paint0_linear_219_345781" x1="-10.691" y1="54.2036" x2="27.786" y2="16.575" gradientUnits="userSpaceOnUse">
<stop stop-color="#3650A5"/>
<stop offset="0.5" stop-color="#2D8EC5"/>
<stop offset="1" stop-color="#30CDB0"/>
</linearGradient>
<linearGradient id="paint1_linear_219_345781" x1="4.07747" y1="30.1497" x2="30.5125" y2="4.30088" gradientUnits="userSpaceOnUse">
<stop stop-color="#3650A5"/>
<stop offset="0.5" stop-color="#2D8EC5"/>
<stop offset="1" stop-color="#30CDB0"/>
</linearGradient>
</defs>
</svg>
