<svg width="467" height="467" viewBox="0 0 467 467" fill="none" xmlns="http://www.w3.org/2000/svg">
<path d="M233.5 447.542C351.712 447.542 447.541 351.713 447.541 233.501C447.541 115.289 351.712 19.459 233.5 19.459C115.288 19.459 19.458 115.289 19.458 233.501C19.458 351.713 115.288 447.542 233.5 447.542Z" fill="white"/>
<path d="M107.021 340.52V165.395C107.021 150.801 116.75 141.072 131.343 141.072C141.073 141.072 148.856 145.937 155.666 155.666L233.5 272.416L311.333 155.666C318.143 145.937 325.927 141.072 335.656 141.072C350.25 141.072 359.979 150.801 359.979 165.395V340.52C359.979 351.222 351.223 359.979 340.52 359.979C329.818 359.979 321.062 351.222 321.062 340.52V233.499L257.823 330.791C251.985 340.52 243.229 345.385 233.5 345.385C223.771 345.385 215.014 340.52 209.177 330.791L145.937 233.499V340.52C145.937 351.222 137.181 359.979 126.479 359.979C115.777 359.979 107.021 351.222 107.021 340.52Z" fill="black"/>
</svg>
