<svg width="40" height="37" viewBox="0 0 40 37" fill="none" xmlns="http://www.w3.org/2000/svg">
<g opacity="0.75">
<path fill-rule="evenodd" clip-rule="evenodd" d="M20.0787 36.174C18.7107 36.174 18.0075 35.2833 18.0075 35.2833C16.8831 35.2345 8.09597 35.2589 8.09597 35.2589L7.24047 28.0494C7.24047 28.0494 1.82824 24.2405 1.38827 23.8013C-1.20965 12.0343 8.18063 0.816406 20.0791 0.816406C31.9775 0.816406 41.3678 12.0343 38.7699 23.8013C38.3299 24.2405 32.9177 28.0494 32.9177 28.0494L32.0622 35.2589C32.0622 35.2589 23.275 35.2345 22.1507 35.2833C22.1507 35.2833 21.4475 36.174 20.0787 36.174Z" fill="#ED1C24"/>
<path fill-rule="evenodd" clip-rule="evenodd" d="M20.0913 25.2092L19.261 4.39816C18.2597 4.19413 15.7052 4.43897 14.3361 5.45912L18.321 25.2908L12.8851 6.27523C11.582 6.25929 8.95252 8.45911 8.7572 9.11125L16.6861 25.9845L7.7763 10.5599C6.89757 10.8863 4.97665 14.416 5.28318 14.8261L15.2148 26.9638L4.99708 16.5991C4.99708 16.5991 3.66878 18.619 4.53501 22.0404L10.3064 26.2016L11.029 31.8868H18.105C18.105 31.8868 19.2626 32.9823 20.084 32.9823C20.9054 32.9823 22.0631 31.8868 22.0631 31.8868H29.1391L29.8616 26.2016L35.6331 22.0404C36.4993 18.619 35.171 16.5991 35.171 16.5991L24.9533 26.9638L34.8849 14.8261C35.1914 14.416 33.2705 10.8863 32.3918 10.5599L23.4819 25.9845L31.4109 9.11125C31.2155 8.45911 28.586 6.25929 27.2829 6.27523L21.8471 25.2908L25.832 5.45912C24.4628 4.43897 21.9084 4.19413 20.9071 4.39816L20.0913 25.2092Z" fill="#FFD500"/>
</g>
</svg>
