<svg width="144" height="41" viewBox="0 0 144 41" fill="none" xmlns="http://www.w3.org/2000/svg">
<path d="M6.71776 24.9286L0.0172192 29.0736C0.000582845 23.3824 -0.0187153 11.8113 0.0371828 11.0574C0.093081 10.3035 0.705964 9.84094 1.00542 9.70393C5.67025 7.09723 15.2291 2.01128 15.8484 1.69335C16.3802 1.42035 16.9491 1.62595 17.3184 1.75294L27.9763 7.18746L23.5943 12.7618L16.6569 9.11238C16.1858 8.86374 15.891 8.56872 15.1624 8.96975L7.54351 13.3132C7.14423 13.5297 6.71776 13.6998 6.71776 14.191V24.9286Z" fill="#0C0C0D"/>
<path d="M7.1344 34.5022L2.25333 32.086L15.3495 22.4712L7.1344 34.5022Z" fill="black"/>
<path d="M12.5046 29.6135L9.18359 35.4474C11.5634 36.7011 16.3888 39.0694 16.3888 39.0694C16.3888 39.0694 17.9361 39.7284 18.975 39.2872C20.0139 38.8461 33.0217 31.3333 33.4036 30.9859C33.8886 30.5448 33.8886 29.8229 33.8886 29.5021C33.8886 23.9301 33.9927 12.5404 33.9927 11.5948C33.9927 10.6838 34.1082 10.4031 33.5492 9.98198L29.8888 8.11719L22.9092 17.3419L27.2427 14.9044C27.2094 18.7778 27.1409 26.596 27.1329 26.8818C27.1249 27.1676 26.7701 27.6383 26.5937 27.8379C24.3737 29.1757 19.7418 31.9144 18.975 32.1666C18.2081 32.4187 17.5371 32.2716 17.2975 32.1666L12.5046 29.6135Z" fill="black"/>
<path d="M66.8761 20.6364C66.8761 23.3329 66.3649 25.6269 65.3427 27.5185C64.3285 29.41 62.944 30.8549 61.1893 31.853C59.4426 32.843 57.4786 33.3381 55.2972 33.3381C53.0998 33.3381 51.1277 32.839 49.381 31.8409C47.6344 30.8428 46.2539 29.398 45.2397 27.5064C44.2255 25.6148 43.7184 23.3248 43.7184 20.6364C43.7184 17.9399 44.2255 15.6458 45.2397 13.7543C46.2539 11.8627 47.6344 10.4219 49.381 9.43182C51.1277 8.43371 53.0998 7.93466 55.2972 7.93466C57.4786 7.93466 59.4426 8.43371 61.1893 9.43182C62.944 10.4219 64.3285 11.8627 65.3427 13.7543C66.3649 15.6458 66.8761 17.9399 66.8761 20.6364ZM61.5756 20.6364C61.5756 18.8897 61.314 17.4167 60.7908 16.2173C60.2757 15.018 59.5472 14.1084 58.6055 13.4886C57.6637 12.8688 56.561 12.5589 55.2972 12.5589C54.0335 12.5589 52.9308 12.8688 51.989 13.4886C51.0472 14.1084 50.3147 15.018 49.7915 16.2173C49.2764 17.4167 49.0188 18.8897 49.0188 20.6364C49.0188 22.383 49.2764 23.8561 49.7915 25.0554C50.3147 26.2547 51.0472 27.1643 51.989 27.7841C52.9308 28.4039 54.0335 28.7138 55.2972 28.7138C56.561 28.7138 57.6637 28.4039 58.6055 27.7841C59.5472 27.1643 60.2757 26.2547 60.7908 25.0554C61.314 23.8561 61.5756 22.383 61.5756 20.6364ZM70.6522 33V14.4545H75.6387V17.6903H75.8319C76.1699 16.5393 76.7374 15.67 77.5343 15.0824C78.3311 14.4867 79.2488 14.1889 80.2871 14.1889C80.5447 14.1889 80.8224 14.205 81.1202 14.2372C81.418 14.2694 81.6796 14.3137 81.905 14.37V18.9339C81.6635 18.8615 81.3295 18.7971 80.9029 18.7408C80.4763 18.6844 80.0859 18.6562 79.7317 18.6562C78.9751 18.6562 78.2989 18.8213 77.7033 19.1513C77.1157 19.4732 76.6489 19.924 76.3027 20.5036C75.9647 21.0831 75.7956 21.7512 75.7956 22.5078V33H70.6522ZM89.2248 27.6634L89.2369 21.4936H89.9854L95.9258 14.4545H101.83L93.8491 23.7756H92.6296L89.2248 27.6634ZM84.5643 33V8.27273H89.7077V33H84.5643ZM96.1552 33L90.6978 24.9226L94.1268 21.2884L102.18 33H96.1552ZM107.828 39.9545C107.176 39.9545 106.564 39.9022 105.992 39.7976C105.429 39.701 104.962 39.5762 104.592 39.4233L105.751 35.5838C106.355 35.7689 106.898 35.8696 107.381 35.8857C107.872 35.9018 108.294 35.7891 108.649 35.5476C109.011 35.3061 109.305 34.8956 109.53 34.3161L109.832 33.5312L103.179 14.4545H108.588L112.428 28.0739H112.621L116.497 14.4545H121.942L114.734 35.0043C114.388 36.0024 113.917 36.8717 113.321 37.6122C112.734 38.3608 111.989 38.9363 111.088 39.3388C110.186 39.7493 109.099 39.9545 107.828 39.9545ZM129.718 22.2784V33H124.574V14.4545H129.476V17.7266H129.693C130.104 16.648 130.792 15.7947 131.758 15.1669C132.724 14.531 133.895 14.2131 135.271 14.2131C136.559 14.2131 137.682 14.4948 138.64 15.0582C139.598 15.6217 140.343 16.4266 140.874 17.473C141.405 18.5114 141.671 19.7509 141.671 21.1918V33H136.527V22.1094C136.535 20.9744 136.245 20.089 135.658 19.4531C135.07 18.8092 134.261 18.4872 133.231 18.4872C132.539 18.4872 131.927 18.6361 131.396 18.9339C130.873 19.2318 130.462 19.6664 130.164 20.2379C129.874 20.8014 129.726 21.4815 129.718 22.2784Z" fill="black"/>
</svg>
